<svg width="32" height="32" viewBox="0 0 32 32" fill="none" xmlns="http://www.w3.org/2000/svg">
<path d="M15.9998 8C14.4085 8 12.8824 8.63214 11.7571 9.75736C10.6319 10.8826 9.99979 12.4087 9.99979 14V17.586L9.29279 18.293C9.15298 18.4329 9.05777 18.611 9.0192 18.805C8.98064 18.9989 9.00044 19.2 9.07611 19.3827C9.15178 19.5654 9.27992 19.7215 9.44433 19.8314C9.60874 19.9413 9.80204 20 9.99979 20H21.9998C22.1975 20 22.3908 19.9413 22.5552 19.8314C22.7197 19.7215 22.8478 19.5654 22.9235 19.3827C22.9991 19.2 23.0189 18.9989 22.9804 18.805C22.9418 18.611 22.8466 18.4329 22.7068 18.293L21.9998 17.586V14C21.9998 12.4087 21.3676 10.8826 20.2424 9.75736C19.1172 8.63214 17.5911 8 15.9998 8ZM15.9998 24C15.2041 24 14.4411 23.6839 13.8785 23.1213C13.3159 22.5587 12.9998 21.7956 12.9998 21H18.9998C18.9998 21.7956 18.6837 22.5587 18.1211 23.1213C17.5585 23.6839 16.7954 24 15.9998 24Z" fill="#5B6871"/>
</svg>
