<svg width="14" height="16" viewBox="0 0 14 16" fill="none" xmlns="http://www.w3.org/2000/svg">
<path d="M6.99979 0C5.40849 0 3.88236 0.632141 2.75715 1.75736C1.63193 2.88258 0.999787 4.4087 0.999787 6V9.586L0.292787 10.293C0.152977 10.4329 0.057771 10.611 0.0192035 10.805C-0.0193641 10.9989 0.000438951 11.2 0.076109 11.3827C0.151779 11.5654 0.279918 11.7215 0.444328 11.8314C0.608738 11.9413 0.802037 12 0.999787 12H12.9998C13.1975 12 13.3908 11.9413 13.5552 11.8314C13.7197 11.7215 13.8478 11.5654 13.9235 11.3827C13.9991 11.2 14.0189 10.9989 13.9804 10.805C13.9418 10.611 13.8466 10.4329 13.7068 10.293L12.9998 9.586V6C12.9998 4.4087 12.3676 2.88258 11.2424 1.75736C10.1172 0.632141 8.59109 0 6.99979 0ZM6.99979 16C6.20414 16 5.44108 15.6839 4.87847 15.1213C4.31586 14.5587 3.99979 13.7956 3.99979 13H9.99979C9.99979 13.7956 9.68372 14.5587 9.12111 15.1213C8.5585 15.6839 7.79544 16 6.99979 16Z" fill="#5B6871"/>
</svg>
