<svg width="18" height="18" viewBox="0 0 18 18" fill="none" xmlns="http://www.w3.org/2000/svg">
<path d="M15.6665 0.666504H2.33317C1.8915 0.666504 1.4665 0.841504 1.15817 1.15817C0.841504 1.4665 0.666504 1.8915 0.666504 2.33317V12.3332C0.666504 12.7748 0.841504 13.1998 1.15817 13.5082C1.4665 13.8248 1.8915 13.9998 2.33317 13.9998H5.6665L8.99984 17.3332L12.3332 13.9998H15.6665C16.1082 13.9998 16.5332 13.8248 16.8415 13.5082C17.1498 13.1915 17.3332 12.7748 17.3332 12.3332V2.33317C17.3332 1.8915 17.1582 1.4665 16.8415 1.15817C16.5332 0.841504 16.1082 0.666504 15.6665 0.666504ZM2.33317 12.3332V2.33317H15.6665V12.3332H11.6415L8.99984 14.9748L6.35817 12.3332M7.37484 4.03317C7.82484 3.73317 8.4165 3.58317 9.15817 3.58317C9.9415 3.58317 10.5665 3.75817 11.0165 4.09984C11.4665 4.44984 11.6915 4.9165 11.6915 5.49984C11.6915 5.8665 11.5665 6.1915 11.3248 6.49984C11.0832 6.79984 10.7665 7.03317 10.3832 7.20817C10.1665 7.33317 10.0248 7.45817 9.94984 7.59984C9.87484 7.74984 9.83317 7.93317 9.83317 8.1665H8.1665C8.1665 7.74984 8.24984 7.4665 8.40817 7.2665C8.58317 7.0665 8.8665 6.83317 9.29984 6.5665C9.5165 6.44984 9.6915 6.29984 9.83317 6.1165C9.94984 5.9415 10.0165 5.73317 10.0165 5.49984C10.0165 5.24984 9.9415 5.0665 9.7915 4.92484C9.6415 4.77484 9.4165 4.70817 9.15817 4.70817C8.93317 4.70817 8.74984 4.7665 8.58317 4.88317C8.44984 4.99984 8.3665 5.17484 8.3665 5.40817H6.72484C6.68317 4.83317 6.9165 4.33317 7.37484 4.03317ZM8.1665 10.6665V8.99984H9.83317V10.6665H8.1665Z" fill="#FF6A31"/>
</svg>
