<svg width="14" height="18" viewBox="0 0 14 18" fill="none" xmlns="http://www.w3.org/2000/svg">
<path d="M2.00016 17.3332C1.54183 17.3332 1.14933 17.1698 0.822664 16.8432C0.495997 16.5165 0.332942 16.1243 0.333498 15.6665V2.33317C0.333498 1.87484 0.496831 1.48234 0.823497 1.15567C1.15016 0.829005 1.54239 0.66595 2.00016 0.666505H12.0002C12.4585 0.666505 12.851 0.829839 13.1777 1.15651C13.5043 1.48317 13.6674 1.87539 13.6668 2.33317V15.6665C13.6668 16.1248 13.5035 16.5173 13.1768 16.844C12.8502 17.1707 12.4579 17.3337 12.0002 17.3332H2.00016ZM2.00016 15.6665H12.0002V2.33317H10.3335V7.43734C10.3335 7.60401 10.2641 7.72567 10.1252 7.80234C9.98628 7.87901 9.84739 7.87539 9.7085 7.79151L8.68766 7.16651C8.54878 7.08317 8.40628 7.04151 8.26016 7.04151C8.11405 7.04151 7.97183 7.08317 7.8335 7.16651L6.81266 7.79151C6.67378 7.87484 6.53155 7.87845 6.386 7.80234C6.24044 7.72623 6.16739 7.60428 6.16683 7.4365V2.33317H2.00016V15.6665ZM6.16683 7.43734C6.16683 7.60401 6.23989 7.72567 6.386 7.80234C6.23989 7.72623 6.16628 7.60428 6.16683 7.4365V7.43734Z" fill="#FF6A31"/>
</svg>
