<svg width="15" height="18" viewBox="0 0 15 18" fill="none" xmlns="http://www.w3.org/2000/svg">
<path fill-rule="evenodd" clip-rule="evenodd" d="M13.0001 0.666504C13.4205 0.666371 13.8255 0.825176 14.1338 1.11108C14.4422 1.39699 14.631 1.78887 14.6626 2.20817L14.6667 2.33317V15.6665C14.6669 16.087 14.508 16.492 14.2221 16.8003C13.9362 17.1086 13.5443 17.2975 13.1251 17.329L13.0001 17.3332H3.00005C2.57957 17.3333 2.17458 17.1745 1.86626 16.8886C1.55795 16.6027 1.36909 16.2108 1.33755 15.7915L1.33339 15.6665V14.8332C1.12099 14.8329 0.916693 14.7516 0.762246 14.6058C0.6078 14.46 0.514858 14.2607 0.50241 14.0487C0.489962 13.8366 0.558949 13.6279 0.695274 13.465C0.831599 13.3021 1.02497 13.1974 1.23589 13.1723L1.33339 13.1665V11.4998C1.12099 11.4996 0.916693 11.4183 0.762246 11.2725C0.6078 11.1267 0.514858 10.9274 0.50241 10.7153C0.489962 10.5033 0.558949 10.2945 0.695274 10.1316C0.831599 9.96877 1.02497 9.86409 1.23589 9.839L1.33339 9.83317V8.1665C1.12099 8.16627 0.916693 8.08494 0.762246 7.93913C0.6078 7.79332 0.514858 7.59404 0.50241 7.38201C0.489962 7.16997 0.558949 6.96119 0.695274 6.79831C0.831599 6.63543 1.02497 6.53076 1.23589 6.50567L1.33339 6.49984V4.83317C1.12099 4.83293 0.916693 4.7516 0.762246 4.6058C0.6078 4.45999 0.514858 4.26071 0.50241 4.04867C0.489962 3.83664 0.558949 3.62785 0.695274 3.46498C0.831599 3.3021 1.02497 3.19742 1.23589 3.17234L1.33339 3.1665V2.33317C1.33325 1.91269 1.49206 1.5077 1.77797 1.19938C2.06388 0.891063 2.45576 0.702207 2.87505 0.670671L3.00005 0.666504H13.0001ZM13.0001 2.33317H3.00005V15.6665H13.0001V2.33317ZM10.9167 3.99984C11.2275 3.99985 11.527 4.1156 11.7571 4.32452C11.9871 4.53344 12.1311 4.82054 12.1609 5.12984L12.1667 5.24984V6.9165C12.1667 7.22724 12.051 7.52683 11.842 7.75685C11.6331 7.98688 11.346 8.13084 11.0367 8.16067L10.9167 8.1665H5.08339C4.77265 8.16649 4.47306 8.05074 4.24304 7.84182C4.01301 7.63291 3.86905 7.3458 3.83922 7.0365L3.83339 6.9165V5.24984C3.8334 4.9391 3.94915 4.63951 4.15807 4.40949C4.36699 4.17946 4.65409 4.0355 4.96339 4.00567L5.08339 3.99984H10.9167ZM10.5001 5.6665H5.50005V6.49984H10.5001V5.6665Z" fill="#FF6A31"/>
</svg>
