<svg width="16" height="18" viewBox="0 0 16 18" fill="none" xmlns="http://www.w3.org/2000/svg">
<path d="M2.16667 17.5002C1.70833 17.5002 1.31583 17.3368 0.989168 17.0102C0.662501 16.6835 0.499446 16.2913 0.500001 15.8335V4.16683C0.500001 3.7085 0.663335 3.316 0.990001 2.98933C1.31667 2.66266 1.70889 2.49961 2.16667 2.50016H5.66667C5.84722 2.00016 6.14945 1.59738 6.57333 1.29183C6.99722 0.986274 7.47278 0.833496 8 0.833496C8.52778 0.833496 9.00361 0.986274 9.4275 1.29183C9.85139 1.59738 10.1533 2.00016 10.3333 2.50016H13.8333C14.2917 2.50016 14.6842 2.6635 15.0108 2.99016C15.3375 3.31683 15.5006 3.70905 15.5 4.16683V15.8335C15.5 16.2918 15.3367 16.6843 15.01 17.011C14.6833 17.3377 14.2911 17.5007 13.8333 17.5002H2.16667ZM2.16667 15.8335H13.8333V4.16683H2.16667V15.8335ZM4.66667 14.1668H8.83333C9.06945 14.1668 9.2675 14.0868 9.4275 13.9268C9.5875 13.7668 9.66722 13.5691 9.66667 13.3335C9.66667 13.0974 9.58667 12.8993 9.42667 12.7393C9.26667 12.5793 9.06889 12.4996 8.83333 12.5002H4.66667C4.43056 12.5002 4.2325 12.5802 4.0725 12.7402C3.9125 12.9002 3.83278 13.0979 3.83333 13.3335C3.83333 13.5696 3.91333 13.7677 4.07333 13.9277C4.23333 14.0877 4.43111 14.1674 4.66667 14.1668ZM4.66667 10.8335H11.3333C11.5694 10.8335 11.7675 10.7535 11.9275 10.5935C12.0875 10.4335 12.1672 10.2357 12.1667 10.0002C12.1667 9.76405 12.0867 9.566 11.9267 9.406C11.7667 9.246 11.5689 9.16627 11.3333 9.16683H4.66667C4.43056 9.16683 4.2325 9.24683 4.0725 9.40683C3.9125 9.56683 3.83278 9.76461 3.83333 10.0002C3.83333 10.2363 3.91333 10.4343 4.07333 10.5943C4.23333 10.7543 4.43111 10.8341 4.66667 10.8335ZM4.66667 7.50016H11.3333C11.5694 7.50016 11.7675 7.42016 11.9275 7.26016C12.0875 7.10016 12.1672 6.90238 12.1667 6.66683C12.1667 6.43072 12.0867 6.23266 11.9267 6.07266C11.7667 5.91266 11.5689 5.83294 11.3333 5.8335H4.66667C4.43056 5.8335 4.2325 5.9135 4.0725 6.0735C3.9125 6.2335 3.83278 6.43127 3.83333 6.66683C3.83333 6.90294 3.91333 7.101 4.07333 7.261C4.23333 7.421 4.43111 7.50072 4.66667 7.50016ZM8 3.54183C8.18056 3.54183 8.32972 3.48266 8.4475 3.36433C8.56528 3.246 8.62445 3.09683 8.625 2.91683C8.625 2.73627 8.56583 2.58711 8.4475 2.46933C8.32917 2.35155 8.18 2.29238 8 2.29183C7.81945 2.29183 7.67028 2.351 7.5525 2.46933C7.43472 2.58766 7.37556 2.73683 7.375 2.91683C7.375 3.09738 7.43417 3.24655 7.5525 3.36433C7.67084 3.48211 7.82 3.54127 8 3.54183Z" fill="#FF6A31"/>
</svg>
