<svg width="19" height="16" viewBox="0 0 19 16" fill="none" xmlns="http://www.w3.org/2000/svg">
<path d="M8.99984 15.2707C8.86095 15.2707 8.72539 15.2532 8.59317 15.2182C8.46095 15.1832 8.33262 15.1312 8.20817 15.0624L4.0415 12.8123C3.76373 12.6596 3.54845 12.4549 3.39567 12.1982C3.24289 11.9415 3.1665 11.6532 3.1665 11.3332V7.33318L1.1665 6.22902C1.01373 6.14568 0.902615 6.04152 0.833171 5.91652C0.763726 5.79152 0.729004 5.65263 0.729004 5.49985C0.729004 5.34707 0.763726 5.20818 0.833171 5.08318C0.902615 4.95818 1.01373 4.85402 1.1665 4.77068L8.20817 0.93735C8.33317 0.867906 8.46178 0.815683 8.594 0.780683C8.72623 0.745683 8.8615 0.728461 8.99984 0.729017C9.13873 0.729017 9.27428 0.746517 9.4065 0.781517C9.53873 0.816517 9.66706 0.868461 9.7915 0.93735L17.729 5.27068C17.8679 5.34013 17.9757 5.44096 18.0523 5.57318C18.129 5.70541 18.1671 5.84763 18.1665 5.99985V11.3332C18.1665 11.5693 18.0865 11.7673 17.9265 11.9273C17.7665 12.0873 17.5687 12.1671 17.3332 12.1665C17.0971 12.1665 16.899 12.0865 16.739 11.9265C16.579 11.7665 16.4993 11.5687 16.4998 11.3332V6.41652L14.8332 7.33318V11.3332C14.8332 11.6526 14.7568 11.941 14.604 12.1982C14.4512 12.4554 14.2359 12.6601 13.9582 12.8123L9.7915 15.0624C9.6665 15.1318 9.53817 15.184 9.4065 15.219C9.27484 15.254 9.13928 15.2712 8.99984 15.2707ZM8.99984 8.58318L14.7082 5.49985L8.99984 2.41652L3.2915 5.49985L8.99984 8.58318ZM8.99984 13.604L13.1665 11.354V8.20818L9.81234 10.0624C9.68734 10.1318 9.55539 10.184 9.4165 10.219C9.27761 10.254 9.13873 10.2712 8.99984 10.2707C8.86095 10.2707 8.72206 10.2532 8.58317 10.2182C8.44428 10.1832 8.31234 10.1312 8.18734 10.0624L4.83317 8.20818V11.354L8.99984 13.604Z" fill="#FF6A31"/>
</svg>
