<svg width="16" height="16" viewBox="0 0 16 16" fill="none" xmlns="http://www.w3.org/2000/svg">
<path d="M9.66634 6.66634C9.11301 6.66634 8.66634 6.21967 8.66634 5.66634V2.33301C8.66634 1.77967 9.11301 1.33301 9.66634 1.33301C10.2197 1.33301 10.6663 1.77967 10.6663 2.33301V5.66634C10.6663 6.21967 10.2197 6.66634 9.66634 6.66634Z" stroke="#344054" stroke-width="1.5" stroke-linecap="round" stroke-linejoin="round"/>
<path d="M13.6663 6.66634H12.6663V5.66634C12.6663 5.11301 13.113 4.66634 13.6663 4.66634C14.2197 4.66634 14.6663 5.11301 14.6663 5.66634C14.6663 6.21967 14.2197 6.66634 13.6663 6.66634Z" stroke="#344054" stroke-width="1.5" stroke-linecap="round" stroke-linejoin="round"/>
<path d="M6.33301 9.33301C6.88634 9.33301 7.33301 9.77967 7.33301 10.333V13.6663C7.33301 14.2197 6.88634 14.6663 6.33301 14.6663C5.77967 14.6663 5.33301 14.2197 5.33301 13.6663V10.333C5.33301 9.77967 5.77967 9.33301 6.33301 9.33301Z" stroke="#344054" stroke-width="1.5" stroke-linecap="round" stroke-linejoin="round"/>
<path d="M2.33301 9.33301H3.33301V10.333C3.33301 10.8863 2.88634 11.333 2.33301 11.333C1.77967 11.333 1.33301 10.8863 1.33301 10.333C1.33301 9.77967 1.77967 9.33301 2.33301 9.33301Z" stroke="#344054" stroke-width="1.5" stroke-linecap="round" stroke-linejoin="round"/>
<path d="M9.33301 9.66634C9.33301 9.11301 9.77967 8.66634 10.333 8.66634H13.6663C14.2197 8.66634 14.6663 9.11301 14.6663 9.66634C14.6663 10.2197 14.2197 10.6663 13.6663 10.6663H10.333C9.77967 10.6663 9.33301 10.2197 9.33301 9.66634Z" stroke="#344054" stroke-width="1.5" stroke-linecap="round" stroke-linejoin="round"/>
<path d="M10.333 12.6663H9.33301V13.6663C9.33301 14.2197 9.77967 14.6663 10.333 14.6663C10.8863 14.6663 11.333 14.2197 11.333 13.6663C11.333 13.113 10.8863 12.6663 10.333 12.6663Z" stroke="#344054" stroke-width="1.5" stroke-linecap="round" stroke-linejoin="round"/>
<path d="M6.66634 6.33301C6.66634 5.77967 6.21967 5.33301 5.66634 5.33301H2.33301C1.77967 5.33301 1.33301 5.77967 1.33301 6.33301C1.33301 6.88634 1.77967 7.33301 2.33301 7.33301H5.66634C6.21967 7.33301 6.66634 6.88634 6.66634 6.33301Z" stroke="#344054" stroke-width="1.5" stroke-linecap="round" stroke-linejoin="round"/>
<path d="M5.66634 3.33301H6.66634V2.33301C6.66634 1.77967 6.21967 1.33301 5.66634 1.33301C5.11301 1.33301 4.66634 1.77967 4.66634 2.33301C4.66634 2.88634 5.11301 3.33301 5.66634 3.33301Z" stroke="#344054" stroke-width="1.5" stroke-linecap="round" stroke-linejoin="round"/>
</svg>
