<svg width="16" height="14" viewBox="0 0 16 14" fill="none" xmlns="http://www.w3.org/2000/svg">
<path d="M10.667 13V11.6667C10.667 10.9594 10.386 10.2811 9.88594 9.78105C9.38585 9.28095 8.70757 9 8.00033 9H3.33366C2.62641 9 1.94814 9.28095 1.44804 9.78105C0.947944 10.2811 0.666992 10.9594 0.666992 11.6667V13M13.3337 4.33333V8.33333M15.3337 6.33333H11.3337M8.33366 3.66667C8.33366 5.13943 7.13975 6.33333 5.66699 6.33333C4.19423 6.33333 3.00033 5.13943 3.00033 3.66667C3.00033 2.19391 4.19423 1 5.66699 1C7.13975 1 8.33366 2.19391 8.33366 3.66667Z" stroke="#344054" stroke-width="1.5" stroke-linecap="round" stroke-linejoin="round"/>
</svg>
