<svg width="30" height="30" viewBox="0 0 30 30" fill="none" xmlns="http://www.w3.org/2000/svg">
<rect width="30" height="30" rx="15" fill="#417EE3"/>
<path d="M15 8C15.862 8 16.6886 8.34241 17.2981 8.9519C17.9076 9.5614 18.25 10.388 18.25 11.25C18.25 12.112 17.9076 12.9386 17.2981 13.5481C16.6886 14.1576 15.862 14.5 15 14.5C14.138 14.5 13.3114 14.1576 12.7019 13.5481C12.0924 12.9386 11.75 12.112 11.75 11.25C11.75 10.388 12.0924 9.5614 12.7019 8.9519C13.3114 8.34241 14.138 8 15 8ZM15 16.125C18.5913 16.125 21.5 17.5794 21.5 19.375V21H8.5V19.375C8.5 17.5794 11.4088 16.125 15 16.125Z" fill="white"/>
</svg>
